HIERARCHY
ROOT Hips
{
	OFFSET 0.00000 0.00000 0.00000
	CHANNELS 6 Xposition Yposition Zposition Zrotation Yrotation Xrotation 
	JOINT LHipJoint
	{
		OFFSET 0 0 0
		CHANNELS 3 Zrotation Yrotation Xrotation
		JOINT LeftUpLeg
		{
			OFFSET 1.84395 -1.68683 0.74144
			CHANNELS 3 Zrotation Yrotation Xrotation
			JOINT LeftLeg
			{
				OFFSET 2.27037 -6.23779 0.00000
				CHANNELS 3 Zrotation Yrotation Xrotation
				JOINT LeftFoot
				{
					OFFSET 2.56918 -7.05877 0.00000
					CHANNELS 3 Zrotation Yrotation Xrotation
					JOINT LeftToeBase
					{
						OFFSET 0.22276 -0.61202 1.71784
						CHANNELS 3 Zrotation Yrotation Xrotation
						End Site
						{
							OFFSET 0.00000 -0.00000 0.91613
						}
					}
				}
			}
		}
	}
	JOINT RHipJoint
	{
		OFFSET 0 0 0
		CHANNELS 3 Zrotation Yrotation Xrotation
		JOINT RightUpLeg
		{
			OFFSET -1.76833 -1.68684 0.74144
			CHANNELS 3 Zrotation Yrotation Xrotation
			JOINT RightLeg
			{
				OFFSET -2.49360 -6.85110 0.00000
				CHANNELS 3 Zrotation Yrotation Xrotation
				JOINT RightFoot
				{
					OFFSET -2.55538 -7.02085 0.00000
					CHANNELS 3 Zrotation Yrotation Xrotation
					JOINT RightToeBase
					{
						OFFSET -0.21516 -0.59115 1.68050
						CHANNELS 3 Zrotation Yrotation Xrotation
						End Site
						{
							OFFSET -0.00000 -0.00000 0.89604
						}
					}
				}
			}
		}
	}
	JOINT LowerBack
	{
		OFFSET 0 0 0
		CHANNELS 3 Zrotation Yrotation Xrotation
		JOINT Spine
		{
			OFFSET 0.06382 1.72312 -0.19613
			CHANNELS 3 Zrotation Yrotation Xrotation
			JOINT Spine1
			{
				OFFSET -0.00055 1.73507 0.23859
				CHANNELS 3 Zrotation Yrotation Xrotation
				JOINT Neck
				{
					OFFSET 0 0 0
					CHANNELS 3 Zrotation Yrotation Xrotation
					JOINT Neck1
					{
						OFFSET 0.03638 1.65562 0.09633
						CHANNELS 3 Zrotation Yrotation Xrotation
						JOINT Head
						{
							OFFSET 0.06388 1.62807 -0.32386
							CHANNELS 3 Zrotation Yrotation Xrotation
							End Site
							{
								OFFSET 0.00995 1.67644 -0.12021
							}
						}
					}
				}
				JOINT LeftShoulder
				{
					OFFSET 0 0 0
					CHANNELS 3 Zrotation Yrotation Xrotation
					JOINT LeftArm
					{
						OFFSET 3.09648 1.42991 0.28122
						CHANNELS 3 Zrotation Yrotation Xrotation
						JOINT LeftForeArm
						{
							OFFSET 5.11878 -0.00000 -0.00000
							CHANNELS 3 Zrotation Yrotation Xrotation
							JOINT LeftHand
							{
								OFFSET 3.59971 -0.00000 0.00000
								CHANNELS 3 Zrotation Yrotation Xrotation
								JOINT LeftFingerBase
								{
									OFFSET 0 0 0
									CHANNELS 3 Zrotation Yrotation Xrotation
									JOINT LeftHandIndex1
									{
										OFFSET 0.62877 -0.00000 0.00000
										CHANNELS 3 Zrotation Yrotation Xrotation
										End Site
										{
											OFFSET 0.50693 -0.00000 0.00000
										}
									}
								}
								JOINT LThumb
								{
									OFFSET 0 0 0
									CHANNELS 3 Zrotation Yrotation Xrotation
									End Site
									{
										OFFSET 0.51467 -0.00000 0.51467
									}
								}
							}
						}
					}
				}
				JOINT RightShoulder
				{
					OFFSET 0 0 0
					CHANNELS 3 Zrotation Yrotation Xrotation
					JOINT RightArm
					{
						OFFSET -3.33565 1.14597 0.05047
						CHANNELS 3 Zrotation Yrotation Xrotation
						JOINT RightForeArm
						{
							OFFSET -5.49020 -0.00000 0.00000
							CHANNELS 3 Zrotation Yrotation Xrotation
							JOINT RightHand
							{
								OFFSET -3.20659 -0.00000 -0.00000
								CHANNELS 3 Zrotation Yrotation Xrotation
								JOINT RightFingerBase
								{
									OFFSET 0 0 0
									CHANNELS 3 Zrotation Yrotation Xrotation
									JOINT RightHandIndex1
									{
										OFFSET -0.69188 -0.00000 0.00000
										CHANNELS 3 Zrotation Yrotation Xrotation
										End Site
										{
											OFFSET -0.55781 -0.00000 0.00000
										}
									}
								}
								JOINT RThumb
								{
									OFFSET 0 0 0
									CHANNELS 3 Zrotation Yrotation Xrotation
									End Site
									{
										OFFSET -0.56633 -0.00000 0.56633
									}
								}
							}
						}
					}
				}
			}
		}
	}
}
MOTION
Frames: 9
Frame Time: .0083333
0.4604 17.5225 7.7869 -6.6895 -2.7100 5.6283 0.0000 0.0000 0.0000 -19.0920 -33.5221 22.7696 0.0497 -1.4385 -3.9561 -4.6925 37.7712 -31.7468 0.0213 0.9428 2.5914 0.0000 0.0000 0.0000 26.3860 23.0409 9.1367 -0.0105 -0.6615 1.8179 0.7915 -18.9848 -18.7992 -0.0138 -0.7580 2.0832 6.8174 1.3349 5.2648 -0.3380 2.5204 -8.0829 -4.5590 0.6093 -11.3955 -2.3116 -3.3710 -13.6361 9.5321 -8.4429 38.7497 3.1539 -2.5634 16.9751 0.0000 -0.0000 0.0000 -38.7125 1.1656 53.8743 48.9972 -52.5830 -25.3755 -0.0000 0.0000 -22.8541 -79.4459 2.9665 -15.5237 -7.1250 0.0000 -0.0000 -53.3227 -34.9004 98.3743 0.0000 -0.0000 0.0000 51.0152 4.5664 47.7281 -36.9479 46.1540 -16.2025 0.0000 -0.0000 -16.6218 82.4110 -25.7196 -72.9330 7.1250 -0.0000 -0.0000 62.4438 -39.6162 18.5134
0.4616 17.5219 7.7882 -6.6627 -2.7452 5.6305 0.0000 0.0000 0.0000 -19.1855 -33.5665 22.8460 0.0499 -1.4414 -3.9642 -4.6710 37.7846 -31.9588 0.0287 1.0939 3.0072 0.0000 0.0000 0.0000 26.3403 23.0105 9.1385 -0.0100 -0.6453 1.7732 0.7992 -18.9867 -18.6959 -0.0096 -0.6340 1.7423 6.7808 1.3642 5.2606 -0.3629 2.5528 -8.0765 -4.5698 0.6276 -11.3809 -2.2345 -3.3963 -13.5650 9.4886 -8.4749 38.6505 3.1089 -2.5754 16.8980 0.0000 -0.0000 0.0000 -38.9831 1.1266 53.7603 47.4927 -51.9328 -24.1857 -0.0000 0.0000 -16.6102 -78.9003 3.2001 -15.8835 -7.1250 0.0000 -0.0000 -52.4746 -33.7248 97.2195 0.0000 -0.0000 0.0000 50.7812 4.5987 48.9242 -35.3879 45.0871 -15.0874 0.0000 -0.0000 -7.4410 81.2638 -25.0643 -70.0624 7.1250 -0.0000 -0.0000 59.8108 -37.8042 22.7229
0.4622 17.5211 7.7892 -6.6389 -2.7818 5.6345 0.0000 0.0000 0.0000 -19.2600 -33.5974 22.9089 0.0497 -1.4390 -3.9576 -4.5793 37.6736 -32.2919 0.0429 1.3363 3.6747 0.0000 0.0000 0.0000 26.3263 23.0658 9.1771 -0.0098 -0.6402 1.7593 0.8053 -19.0232 -18.6923 -0.0095 -0.6297 1.7303 6.7409 1.3840 5.2417 -0.3859 2.5722 -8.0920 -4.5747 0.6387 -11.3845 -2.2476 -3.4052 -13.3558 9.5555 -8.4913 38.5187 3.1336 -2.5854 16.7800 0.0000 0.0000 0.0000 -39.3686 1.1180 53.2833 46.0947 -51.2936 -23.0899 -0.0000 0.0000 -10.5531 -79.2971 3.5729 -18.2486 -7.1250 0.0000 -0.0000 -51.5162 -32.6920 95.3145 0.0000 0.0000 0.0000 50.7673 4.6196 49.4575 -33.9647 44.0585 -14.0885 0.0000 -0.0000 -1.9142 79.5554 -28.0587 -68.5999 7.1250 -0.0000 -0.0000 68.3032 -42.7893 9.1350
0.4626 17.5206 7.7903 -6.6209 -2.8068 5.6329 0.0000 0.0000 0.0000 -19.3101 -33.6011 22.9558 0.0500 -1.4435 -3.9700 -4.5658 37.6645 -32.3633 0.0439 1.3516 3.7167 0.0000 0.0000 0.0000 26.3224 23.1101 9.2184 -0.0097 -0.6367 1.7495 0.8065 -19.0434 -18.7215 -0.0102 -0.6526 1.7934 6.7027 1.3951 5.2456 -0.4018 2.5820 -8.0970 -4.5722 0.6454 -11.3914 -2.2560 -3.4098 -13.2417 9.6024 -8.5055 38.4617 3.1520 -2.5915 16.7256 0.0000 -0.0000 0.0000 -39.7610 1.1185 52.7450 44.7029 -50.6221 -22.0088 -0.0000 0.0000 -4.8571 -79.1711 4.0947 -20.4704 -7.1250 0.0000 -0.0000 -50.1545 -30.7709 92.8867 0.0000 -0.0000 0.0000 50.8155 4.6113 49.5419 -32.7215 43.1149 -13.2313 0.0000 0.0000 3.7472 78.5585 -30.1614 -68.0596 7.1250 -0.0000 -0.0000 74.8125 -45.2186 -1.1106
0.4623 17.5204 7.7914 -6.6207 -2.8193 5.6214 0.0000 0.0000 0.0000 -19.3515 -33.6219 23.0195 0.0502 -1.4463 -3.9777 -4.5872 37.7139 -32.3631 0.0453 1.3743 3.7793 0.0000 0.0000 0.0000 26.3426 23.1423 9.2671 -0.0096 -0.6322 1.7372 0.7996 -19.0344 -18.7967 -0.0150 -0.7898 2.1706 6.6752 1.4130 5.2834 -0.4096 2.6047 -8.0806 -4.5697 0.6586 -11.3928 -2.2266 -3.4209 -13.2414 9.5896 -8.5237 38.4440 3.1365 -2.5967 16.7153 0.0000 0.0000 0.0000 -40.1877 1.1753 52.1985 43.2753 -49.8950 -20.9111 -0.0000 -0.0000 1.4395 -77.8676 4.4736 -19.9424 -7.1250 0.0000 -0.0000 -49.1686 -28.7017 91.5908 0.0000 0.0000 0.0000 51.0196 4.5211 48.7659 -31.6682 42.2810 -12.5170 0.0000 0.0000 10.3558 78.5827 -30.4403 -68.2674 7.1250 -0.0000 -0.0000 75.7570 -45.4880 -2.5592
0.4618 17.5203 7.7928 -6.6320 -2.8392 5.6111 0.0000 0.0000 0.0000 -19.4323 -33.7148 23.1435 0.0500 -1.4435 -3.9700 -4.5882 37.7778 -32.5603 0.0573 1.5446 4.2488 0.0000 0.0000 0.0000 26.3786 23.1949 9.3266 -0.0094 -0.6251 1.7179 0.7938 -19.0315 -18.8707 -0.0220 -0.9567 2.6297 6.6552 1.4381 5.3182 -0.4075 2.6387 -8.0598 -4.5619 0.6776 -11.3864 -2.2254 -3.4420 -13.2105 9.5422 -8.5206 38.3283 3.1092 -2.6052 16.6401 -0.0000 -0.0000 0.0000 -40.7232 1.3136 51.4123 42.0082 -49.2157 -19.9467 -0.0000 -0.0000 8.4091 -75.6525 5.0250 -18.9034 -7.1250 0.0000 -0.0000 -47.6060 -24.9653 89.1488 -0.0000 -0.0000 0.0000 51.3091 4.3431 47.7026 -30.7979 41.5676 -11.9356 0.0000 0.0000 16.5897 77.8641 -31.4106 -67.5786 7.1250 -0.0000 -0.0000 78.5433 -46.2265 -7.0376
0.4614 17.5200 7.7944 -6.6174 -2.8582 5.6211 0.0000 0.0000 0.0000 -19.5597 -33.8437 23.2993 0.0513 -1.4619 -4.0208 -4.6715 37.9969 -32.6496 0.0512 1.4600 4.0156 0.0000 0.0000 0.0000 26.3647 23.2181 9.3415 -0.0091 -0.6154 1.6912 0.8010 -19.0592 -18.8324 -0.0173 -0.8497 2.3355 6.5980 1.4366 5.3575 -0.3874 2.6357 -8.0667 -4.5093 0.6805 -11.4209 -2.2492 -3.4114 -13.2055 9.5084 -8.4456 38.2925 3.1099 -2.5829 16.6097 -0.0000 -0.0000 0.0000 -41.2823 1.6217 50.4314 40.9428 -48.6186 -19.1437 -0.0000 -0.0000 15.7654 -72.3427 6.0350 -18.2775 -7.1250 0.0000 -0.0000 -45.2095 -17.6162 83.6438 -0.0000 -0.0000 0.0000 51.5848 4.1416 46.6964 -30.0547 40.9403 -11.4455 0.0000 0.0000 22.2336 76.4492 -33.3086 -66.3038 7.1250 -0.0000 -0.0000 83.6244 -47.2693 -15.3909
0.4607 17.5198 7.7955 -6.6217 -2.8206 5.6685 0.0000 0.0000 0.0000 -19.6016 -33.9747 23.3906 0.0540 -1.4992 -4.1236 -4.8182 38.2800 -32.4872 0.0330 1.1720 3.2222 0.0000 0.0000 0.0000 26.3366 23.1601 9.2719 -0.0087 -0.6039 1.6594 0.8156 -19.0911 -18.7008 -0.0100 -0.6472 1.7786 6.5571 1.4072 5.3858 -0.3548 2.5985 -8.1018 -4.4480 0.6642 -11.4857 -2.2820 -3.3854 -13.2207 9.4837 -8.3872 38.3106 3.1160 -2.5659 16.6166 -0.0000 0.0000 0.0000 -41.7973 1.9896 49.3737 39.9093 -48.0161 -18.3718 -0.0000 -0.0000 23.3392 -67.4405 7.4560 -17.3468 -7.1250 0.0000 -0.0000 -43.1912 -4.7414 73.3060 -0.0000 0.0000 0.0000 51.9113 3.8684 45.4830 -29.4328 40.4022 -11.0401 0.0000 0.0000 27.7428 74.6385 -35.2071 -64.5218 7.1250 -0.0000 -0.0000 87.8295 -47.9450 -22.7918
0.4602 17.5194 7.7973 -6.6793 -2.7391 5.7263 0.0000 0.0000 0.0000 -19.5851 -34.1501 23.4668 0.0549 -1.5120 -4.1587 -4.8124 38.3263 -32.6832 0.0370 1.2421 3.4153 0.0000 0.0000 0.0000 26.3554 23.0705 9.1833 -0.0085 -0.5939 1.6321 0.8154 -19.0722 -18.6601 -0.0102 -0.6533 1.7953 6.5818 1.3699 5.3613 -0.3167 2.5534 -8.1192 -4.4133 0.6415 -11.4977 -2.3100 -3.3741 -13.2236 9.5281 -8.3768 38.2895 3.1420 -2.5603 16.6098 -0.0000 -0.0000 0.0000 -42.3229 2.2892 48.1640 38.8318 -47.3624 -17.5750 -0.0000 -0.0000 30.5126 -60.6299 9.3365 -16.0807 -7.1250 0.0000 -0.0000 -44.4583 13.4510 55.6424 -0.0000 -0.0000 0.0000 52.2930 3.5372 44.0285 -28.9316 39.9598 -10.7168 0.0000 0.0000 32.8767 72.2465 -37.2274 -62.1111 7.1250 -0.0000 -0.0000 91.2484 -48.5111 -29.5367
